<svg height="1024" viewBox="0 0 270.93333 270.93334" width="1024" xmlns="http://www.w3.org/2000/svg">
    <g stroke-width=".586787" transform="matrix(1.3353892 0 0 1.3353892 -24.297326 -94.719682)">
        <path d="m74.206857 125.04091v11.17592 5.23648c0 17.67636 14.156819 32.18701 31.698213 32.76205v.02h5.58855 1.08205 1.47576v2.90108 10.82505 8.58703c0 7.40231 3.5483 14.37159 9.53353 18.7273 5.98522 4.35511 13.70792 5.5862 20.75111 3.30948l-3.43798-10.63435c-3.65216 1.18063-7.63409.54513-10.73703-1.71341-3.10351-2.25796-4.93251-5.85085-4.93251-9.68902v-8.58703h2.55428 4.5071 1.08145v-.0177c17.54199-.57505 31.69881-15.08569 31.69881-32.76148v-5.58855-10.82503h-5.58858-7.06137-1.08203-5.58798v.0177c-8.5307.27989-16.26044 3.85518-21.9511 9.48776-4.00892-13.08417-16.02397-22.74562-30.272914-23.21329v-.0177h-1.08143-4.50652-8.14286zm11.176529 11.17592h2.55488 4.50652c11.997434 0 21.603714 9.60688 21.603714 21.60431v5.23648h-1.47283-1.08205-4.50652c-11.997444 0-21.603714-9.60627-21.603714-21.60431zm61.448874 13.72613h4.50595 1.08203 1.47342v5.23705c0 11.99744-9.6063 21.60374-21.60373 21.60374h-4.5071-2.55428v-5.2365c0-11.99744 9.6057-21.60429 21.60371-21.60429z"
              fill="#1a1a1a"/>
        <path d="m85.383386 136.21683v5.23648c0 11.99804 9.60627 21.60431 21.603714 21.60431h4.50652 1.08205 1.47283v-5.23648c0-11.99743-9.60628-21.60431-21.603714-21.60431h-4.50652z"
              fill="#bfff00"/>
    </g>
</svg>