<?xml version="1.0" encoding="UTF-8" standalone="no"?>
<!-- Created with Inkscape (http://www.inkscape.org/) -->

<svg
   xmlns:dc="http://purl.org/dc/elements/1.1/"
   xmlns:cc="http://creativecommons.org/ns#"
   xmlns:rdf="http://www.w3.org/1999/02/22-rdf-syntax-ns#"
   xmlns:svg="http://www.w3.org/2000/svg"
   xmlns="http://www.w3.org/2000/svg"
   xmlns:sodipodi="http://sodipodi.sourceforge.net/DTD/sodipodi-0.dtd"
   xmlns:inkscape="http://www.inkscape.org/namespaces/inkscape"
   width="1024"
   height="1024"
   viewBox="0 0 270.93333 270.93334"
   version="1.1"
   id="svg8"
   inkscape:version="0.92.4 (unknown)"
   sodipodi:docname="White.svg">
  <defs
     id="defs2" />
  <sodipodi:namedview
     id="base"
     pagecolor="#ffffff"
     bordercolor="#666666"
     borderopacity="1.0"
     inkscape:pageopacity="0.0"
     inkscape:pageshadow="2"
     inkscape:zoom="0.35"
     inkscape:cx="463.34737"
     inkscape:cy="466.36823"
     inkscape:document-units="mm"
     inkscape:current-layer="g831"
     showgrid="false"
     units="px"
     inkscape:window-width="1299"
     inkscape:window-height="704"
     inkscape:window-x="67"
     inkscape:window-y="27"
     inkscape:window-maximized="1" />
  <metadata
     id="metadata5">
    <rdf:RDF>
      <cc:Work
         rdf:about="">
        <dc:format>image/svg+xml</dc:format>
        <dc:type
           rdf:resource="http://purl.org/dc/dcmitype/StillImage" />
        <dc:title></dc:title>
      </cc:Work>
    </rdf:RDF>
  </metadata>
  <g
     inkscape:label="Layer 1"
     inkscape:groupmode="layer"
     id="layer1"
     transform="translate(0,-26.06665)">
    <g
       id="g831"
       transform="matrix(1.3353892,0,0,1.3353892,-24.297326,-68.653032)"
       style="fill:#1a1a1a">
      <path
         style="fill:#ffffff;stroke-width:2.9615941"
         d="M 282.69922 273.10352 L 282.69922 329.50977 L 282.69922 355.93945 C 282.69922 445.15452 354.15167 518.39066 442.68555 521.29297 L 442.68555 521.39453 L 470.89062 521.39453 L 476.35352 521.39453 L 483.80078 521.39453 L 483.80078 536.03711 L 483.80078 590.67188 L 483.80078 634.01172 C 483.80078 671.37222 501.70967 706.54737 531.91797 728.53125 C 562.12621 750.5121 601.10438 756.7253 636.65234 745.23438 L 619.30078 691.5625 C 600.86782 697.52131 580.77035 694.31323 565.10938 682.91406 C 549.44552 671.51782 540.21289 653.3835 540.21289 634.01172 L 540.21289 590.67188 L 553.10547 590.67188 L 575.85352 590.67188 L 581.3125 590.67188 L 581.3125 590.58398 C 669.84938 587.68163 741.30078 514.44266 741.30078 425.23047 L 741.30078 397.02539 L 741.30078 342.38867 L 713.09375 342.38867 L 677.45312 342.38867 L 671.99219 342.38867 L 643.78906 342.38867 L 643.78906 342.47852 C 600.73342 343.89116 561.72156 361.93681 533 390.36523 C 512.76642 324.32759 452.12345 275.56547 380.20703 273.20508 L 380.20703 273.11523 L 374.75 273.11523 L 352.00391 273.11523 L 310.90625 273.11523 L 282.69922 273.10352 z M 649.25 398.78711 L 671.99219 398.78711 L 677.45312 398.78711 L 684.89062 398.78711 L 684.89062 425.21875 C 684.89062 485.77151 636.40623 534.25586 575.85352 534.25586 L 553.10547 534.25586 L 540.21289 534.25586 L 540.21289 507.82812 C 540.21289 447.27536 588.69436 398.78711 649.25 398.78711 z "
         transform="matrix(0.198132,0,0,0.198132,18.19494,70.930394)"
         id="path1339" />
    </g>
  </g>
</svg>
